<svg version="1.1" id="Layer_1" xmlns="http://www.w3.org/2000/svg" xmlns:xlink="http://www.w3.org/1999/xlink" x="0px" y="0px"
	 width="100%" viewBox="0 0 368 352" enable-background="new 0 0 368 352" xml:space="preserve">
<path fill="#000000" opacity="1.000000" stroke="none" 
	d="
M180.819412,155.000000 
	C180.819626,145.221008 180.819626,135.942017 180.819626,126.663025 
	C180.422073,126.535301 180.024521,126.407578 179.626968,126.279854 
	C175.776993,133.307541 171.880127,140.309998 168.085342,147.367386 
	C153.420776,174.639954 138.795425,201.933655 124.128693,229.205063 
	C123.216316,230.901566 122.520279,233.268112 119.942299,232.743378 
	C117.198540,232.184906 117.828720,229.683029 117.826622,227.803391 
	C117.800453,204.315445 116.699211,180.756088 118.174820,157.360153 
	C119.564140,135.332306 128.088821,115.275597 143.149597,98.688187 
	C156.395279,84.099854 170.911392,70.862404 187.895828,60.612137 
	C197.762604,54.657440 202.087814,54.785938 211.080612,61.684952 
	C225.251328,72.556320 238.476929,84.544205 250.370926,97.837753 
	C265.060730,114.256058 272.061615,133.802933 272.038025,155.883331 
	C272.012360,179.870590 272.060791,203.858459 272.231873,227.844940 
	C272.265015,232.493744 270.689301,234.356277 265.831085,234.287369 
	C249.842361,234.060623 233.846313,234.341858 217.858002,234.100906 
	C213.216156,234.030945 211.757675,235.616669 211.842651,240.144409 
	C212.051849,251.294434 211.740234,262.453552 211.886597,273.605804 
	C211.940552,277.717316 210.401016,279.296021 206.313339,279.172607 
	C199.655853,278.971649 192.985046,278.971649 186.326309,279.140625 
	C182.259857,279.243805 180.696167,277.666779 180.757843,273.552185 
	C180.927628,262.227264 180.662918,250.895264 180.873474,239.571716 
	C180.950592,235.424774 179.515854,234.032089 175.403397,234.120193 
	C165.413162,234.334244 155.414871,234.216171 145.420197,234.162201 
	C139.785019,234.131790 139.779129,233.512329 141.533813,228.482895 
	C144.252945,220.689087 149.028870,217.570618 157.325745,218.619415 
	C162.899612,219.323975 168.636276,218.757797 174.299973,218.729980 
	C180.786331,218.698120 180.798615,218.683609 180.802719,211.970032 
	C180.814194,193.146683 180.814484,174.323349 180.819412,155.000000 
z"/>
</svg>